<?xml version="1.0" standalone="no"?>
<!DOCTYPE svg PUBLIC "-//W3C//DTD SVG 20010904//EN"
 "http://www.w3.org/TR/2001/REC-SVG-20010904/DTD/svg10.dtd">
<svg version="1.0" xmlns="http://www.w3.org/2000/svg"
 width="406.000000pt" height="176.000000pt" viewBox="0 0 406.000000 176.000000"
 preserveAspectRatio="xMidYMid meet">
<metadata>
Created by potrace 1.16, written by Peter Selinger 2001-2019
</metadata>
<g transform="translate(0.000000,176.000000) scale(0.100000,-0.100000)"
fill="#ffffff" stroke="none">
<path d="M670 1288 c-100 -16 -194 -41 -231 -59 -35 -17 -37 -22 -46 -83 -21
-144 3 -352 50 -440 35 -66 122 -158 217 -229 85 -64 113 -64 200 3 111 84
193 178 225 254 22 52 35 170 37 325 l1 135 -28 22 c-35 28 -111 49 -240 69
-110 16 -107 16 -185 3z m240 -63 c50 -12 137 -39 157 -50 7 -3 14 -180 9
-209 -7 -34 -9 -36 -46 -36 l-40 0 0 94 0 93 -61 18 c-119 33 -241 31 -371 -7
l-38 -11 0 -92 c0 -109 14 -195 42 -249 24 -47 104 -133 158 -171 l39 -27 38
30 c67 53 134 131 159 187 25 53 27 55 66 55 40 0 40 0 34 -32 -11 -57 -47
-118 -105 -180 -55 -60 -175 -158 -193 -158 -19 0 -105 66 -174 135 -119 117
-144 191 -144 422 l0 134 37 15 c124 52 305 68 433 39z m-72 -227 c19 -19 14
-83 -10 -125 -28 -49 -58 -83 -74 -83 -15 0 -59 55 -68 85 -13 44 -15 119 -3
127 19 12 142 9 155 -4z"/>
<path d="M1630 1029 c-25 -5 -85 -8 -135 -7 -209 6 -250 3 -282 -20 -45 -32
-63 -78 -63 -160 0 -61 3 -74 30 -111 17 -23 43 -46 58 -52 35 -14 270 -13
286 1 9 7 27 5 61 -6 53 -19 181 -14 229 7 20 10 29 10 38 1 13 -13 144 -17
152 -4 2 4 44 4 93 0 128 -10 307 -13 321 -4 7 4 12 23 12 42 l0 35 53 -2 c28
-1 66 1 84 5 31 7 32 6 40 -36 l9 -43 99 -7 c140 -11 222 -6 242 15 24 23 30
119 9 136 -9 7 -16 24 -16 38 0 21 4 24 32 21 l32 -3 3 -89 c1 -49 4 -95 7
-103 8 -19 145 -18 152 1 3 7 6 53 7 102 l2 89 30 3 30 3 1 -90 c1 -50 4 -97
7 -105 9 -23 62 -29 204 -21 l134 7 14 29 c19 36 19 93 0 109 -19 16 -19 49 1
99 8 21 14 54 12 73 l-3 33 -135 6 c-103 4 -744 4 -865 -1 -11 0 -113 1 -227
4 -216 4 -243 0 -263 -40 -5 -11 -19 -32 -31 -48 l-20 -28 -35 58 -35 59 -63
3 c-48 2 -68 -1 -82 -14 -14 -12 -22 -14 -32 -6 -11 9 -132 34 -147 31 -3 -1
-25 -5 -50 -10z m157 -64 c76 -32 96 -144 37 -206 -49 -51 -154 -65 -231 -30
-44 20 -66 48 -77 94 -6 26 -5 27 34 27 33 0 40 -3 40 -20 0 -37 35 -60 93
-60 60 0 92 17 101 56 8 32 -9 79 -32 90 -10 5 -60 11 -112 14 l-95 5 28 19
c55 37 141 41 214 11z m-287 4 c0 -6 -5 -19 -10 -30 -9 -17 -22 -19 -100 -19
-81 0 -90 -2 -104 -22 -22 -31 -20 -84 4 -108 17 -17 33 -20 115 -20 100 0
115 -8 79 -45 -25 -24 -195 -16 -232 12 -36 27 -52 60 -52 110 0 105 40 133
193 133 69 0 107 -4 107 -11z m523 -79 l54 -90 54 88 c51 82 57 87 92 90 l38
3 -3 -133 -3 -133 -32 -2 -32 -3 -3 78 -3 77 -43 -73 c-56 -95 -73 -96 -127
-7 -22 35 -43 64 -47 65 -3 0 -6 -30 -6 -67 1 -71 -5 -79 -45 -69 -21 5 -22 9
-22 136 l0 130 37 0 c36 0 38 -3 91 -90z m566 64 c23 -19 31 -34 31 -59 0 -75
-32 -95 -155 -95 l-85 0 0 -43 c0 -42 -1 -43 -32 -42 l-33 0 -3 68 -3 67 63 1
c35 1 88 4 118 7 50 6 55 9 55 32 l0 25 -112 3 c-117 3 -123 5 -107 46 5 13
25 16 119 16 107 0 115 -1 144 -26z m340 -4 l-11 -30 -127 0 c-70 0 -130 2
-133 5 -3 3 -3 17 0 30 l4 25 139 0 138 0 -10 -30z m331 26 c0 -3 -4 -16 -10
-30 -9 -24 -15 -26 -64 -26 l-55 0 -3 -102 -3 -103 -30 0 -30 0 -3 103 -3 102
-49 0 c-49 0 -50 1 -50 30 l0 30 150 0 c83 0 150 -2 150 -4z m310 -9 c0 -7 -6
-21 -13 -30 -11 -15 -28 -17 -137 -15 l-125 3 -3 28 -3 27 140 0 c110 0 141
-3 141 -13z m-665 -117 c0 -24 -2 -25 -90 -30 -82 -5 -90 -7 -90 -25 0 -19 8
-20 103 -23 103 -3 111 -6 92 -41 -8 -16 -23 -18 -136 -17 l-126 1 0 78 c1 42
1 79 2 82 0 3 55 4 123 3 l122 -3 0 -25z m635 0 l0 -30 -90 0 c-89 0 -90 0
-90 -25 l0 -25 105 0 c84 0 105 -3 105 -14 0 -8 -7 -22 -16 -31 -13 -13 -37
-15 -127 -14 -61 1 -117 3 -124 6 -14 5 -19 143 -6 156 3 4 60 7 125 7 l118 0
0 -30z"/>
</g>
</svg>
